<?xml version="1.0" encoding="UTF-8"?>
<svg id="Layer_2" data-name="Layer 2" xmlns="http://www.w3.org/2000/svg" viewBox="0 0 186.7 62.67">
  <defs>
    <style>
      .cls-1 {
        fill: #182f49;
      }
    </style>
  </defs>
  <g id="Layer_1-2" data-name="Layer 1">
    <g>
      <g>
        <polygon class="cls-1" points="0 50.95 4.53 50.95 4.53 62.47 7.07 62.47 7.07 50.95 11.61 50.95 11.61 48.8 0 48.8 0 50.95"/>
        <path class="cls-1" d="m22.27,57.91c.87-.38,1.53-.94,2-1.66.47-.72.7-1.59.7-2.59s-.23-1.87-.7-2.6-1.14-1.29-2-1.68-1.91-.59-3.12-.59h-5.63v13.68h2.54v-3.99h3.09c.18,0,.35-.01.53-.02l2.79,4.01h2.74l-3.15-4.49c.07-.03.14-.05.2-.08Zm-.7-6.26c.57.47.85,1.14.85,2.01s-.28,1.53-.85,2.01c-.57.48-1.41.72-2.53.72h-2.97v-5.45h2.97c1.12,0,1.96.23,2.53.7Z"/>
        <path class="cls-1" d="m32.03,48.8l-6.16,13.68h2.62l1.35-3.17h6.84l1.36,3.17h2.66l-6.17-13.68h-2.5Zm-1.33,8.52l2.56-5.99,2.57,5.99h-5.13Z"/>
        <rect class="cls-1" x="42.44" y="48.8" width="2.54" height="13.68"/>
        <polygon class="cls-1" points="58.31 58.06 50.76 48.8 48.67 48.8 48.67 62.47 51.19 62.47 51.19 53.22 58.74 62.47 60.83 62.47 60.83 48.8 58.31 48.8 58.31 58.06"/>
        <rect class="cls-1" x="64.5" y="48.8" width="2.54" height="13.68"/>
        <polygon class="cls-1" points="80.37 58.06 72.82 48.8 70.73 48.8 70.73 62.47 73.25 62.47 73.25 53.21 80.8 62.47 82.89 62.47 82.89 48.8 80.37 48.8 80.37 58.06"/>
        <path class="cls-1" d="m89.53,52.18c.44-.43.97-.76,1.58-1s1.28-.35,1.99-.35,1.42.13,2.04.38c.62.25,1.2.65,1.73,1.18l1.6-1.56c-.64-.73-1.42-1.28-2.35-1.66-.93-.38-1.98-.57-3.14-.57-1.07,0-2.05.17-2.95.52-.9.35-1.68.83-2.35,1.47-.67.63-1.19,1.38-1.55,2.24-.36.86-.55,1.8-.55,2.81s.18,1.95.55,2.81.88,1.61,1.54,2.24c.66.63,1.44,1.12,2.33,1.47.89.34,1.87.52,2.94.52.96,0,1.92-.15,2.86-.44.94-.29,1.77-.73,2.49-1.3v-5.45h-2.4v4.24c-.28.16-.56.3-.85.4-.63.22-1.29.32-1.96.32-.73,0-1.39-.12-1.99-.35-.6-.23-1.12-.57-1.56-1.01s-.78-.95-1.03-1.53c-.24-.59-.36-1.22-.36-1.91s.12-1.35.36-1.93c.24-.59.58-1.09,1.03-1.52Z"/>
        <path class="cls-1" d="m110,52.18c.44-.43.95-.76,1.54-1,.59-.23,1.25-.35,1.96-.35s1.38.13,1.99.4c.61.27,1.17.67,1.66,1.2l1.64-1.54c-.64-.76-1.42-1.33-2.34-1.71-.93-.38-1.95-.58-3.07-.58-1.06,0-2.03.17-2.91.52-.89.35-1.66.83-2.33,1.47-.66.63-1.18,1.38-1.54,2.24s-.55,1.8-.55,2.81.18,1.95.55,2.81c.36.86.88,1.61,1.53,2.24.66.63,1.43,1.12,2.33,1.47.89.34,1.86.52,2.9.52,1.13,0,2.16-.2,3.09-.59.93-.39,1.71-.96,2.34-1.7l-1.64-1.56c-.5.55-1.05.95-1.66,1.22-.61.27-1.28.4-1.99.4s-1.37-.12-1.96-.35c-.59-.23-1.11-.57-1.54-1-.44-.43-.78-.94-1.02-1.52-.24-.59-.36-1.23-.36-1.93s.12-1.35.36-1.93c.24-.59.58-1.09,1.02-1.52Z"/>
        <polygon class="cls-1" points="123.78 56.57 130.39 56.57 130.39 54.48 123.78 54.48 123.78 50.93 131.23 50.93 131.23 48.8 121.24 48.8 121.24 62.47 131.5 62.47 131.5 60.34 123.78 60.34 123.78 56.57"/>
        <polygon class="cls-1" points="143.97 58.06 136.43 48.8 134.34 48.8 134.34 62.47 136.86 62.47 136.86 53.21 144.4 62.47 146.49 62.47 146.49 48.8 143.97 48.8 143.97 58.06"/>
        <polygon class="cls-1" points="148.4 50.95 152.94 50.95 152.94 62.47 155.48 62.47 155.48 50.95 160.01 50.95 160.01 48.8 148.4 48.8 148.4 50.95"/>
        <polygon class="cls-1" points="164.47 56.57 171.07 56.57 171.07 54.48 164.47 54.48 164.47 50.93 171.91 50.93 171.91 48.8 161.93 48.8 161.93 62.47 172.18 62.47 172.18 60.34 164.47 60.34 164.47 56.57"/>
        <path class="cls-1" d="m186.7,62.47l-3.15-4.49c.07-.03.14-.05.2-.08.87-.38,1.53-.94,2-1.66.47-.72.7-1.59.7-2.59s-.23-1.87-.7-2.6-1.14-1.29-2-1.68-1.91-.59-3.12-.59h-5.63v13.68h2.54v-3.99h3.09c.18,0,.35-.01.53-.02l2.79,4.01h2.74Zm-3.64-10.83c.57.47.85,1.14.85,2.01s-.28,1.53-.85,2.01c-.57.48-1.41.72-2.53.72h-2.97v-5.45h2.97c1.12,0,1.96.23,2.53.7Z"/>
      </g>
      <g>
        <path class="cls-1" d="m101.28,31.19c-1.59.6-3.1.93-4.55.98-.16.02-.3.02-.45.02-2.11,0-3.96-.35-5.53-1.05-1.58-.7-2.8-1.63-3.68-2.79-.88-1.16-1.54-2.4-1.96-3.71-.43-1.3-.64-2.69-.64-4.16s.21-2.84.64-4.22c.43-1.37,1.1-2.66,2.02-3.86.91-1.2,2.16-2.17,3.73-2.9,1.54-.72,3.31-1.09,5.3-1.1h.12c3.57,0,6.42,1.04,8.54,3.12h0l5.23-5.24c-2.18-2.13-4.56-3.68-7.15-4.63-2.08-.76-4.28-1.15-6.63-1.15-3.33,0-6.32.57-8.95,1.72-2.63,1.15-4.74,2.69-6.34,4.62-1.59,1.94-2.79,4.06-3.6,6.37-.8,2.3-1.2,4.72-1.2,7.23,0,2.65.38,5.11,1.15,7.39.78,2.27,1.94,4.33,3.49,6.18,1.56,1.85,3.66,3.3,6.29,4.35,2.63,1.06,5.68,1.58,9.16,1.58,2.58,0,4.97-.35,7.14-1.06,2.78-.91,5.22-2.4,7.3-4.47l-5.51-5.51c-1.03.95-2.34,1.72-3.93,2.31Z"/>
        <path class="cls-1" d="m160.43,20.31c1.3.71,2.63,1.26,4,1.65l6.23-6.23c-2-.25-3.52-.61-4.57-1.09-1.3-.6-1.96-1.68-1.96-3.25,0-1.26.64-2.26,1.93-3.01,1.29-.75,2.88-1.13,4.78-1.13,1.61,0,3.21.26,4.81.81,1.59.54,2.89,1.32,3.9,2.36l4.95-4.96c-1.77-1.97-3.7-3.36-5.79-4.18-2.2-.86-4.84-1.29-7.92-1.29-4.12,0-7.62,1.02-10.5,3.03-2.89,2.03-4.35,4.83-4.38,8.41-.03,2.11.33,3.91,1.1,5.39.78,1.49,1.91,2.65,3.41,3.47Z"/>
        <path class="cls-1" d="m177.98,16.94l-6.2,6.2c2.15.26,3.76.74,4.85,1.44,1.24.81,1.84,1.98,1.8,3.52,0,1.33-.7,2.4-2.1,3.22-1.4.82-3.21,1.23-5.42,1.23-1.4,0-2.79-.2-4.21-.6-.69-.19-1.38-.44-2.08-.74-.21-.09-.42-.19-.63-.29-.61-.29-1.2-.63-1.74-1.01-1.04-.71-1.96-1.56-2.75-2.55l-4.99,4.98-.1.11c1.4,2.38,3.48,4.24,6.22,5.55.18.09.36.17.54.25,3.01,1.33,6.23,1.97,9.67,1.94,2.83-.04,5.41-.46,7.74-1.27,2.33-.81,4.26-2.15,5.81-4.03,1.54-1.89,2.3-4.15,2.3-6.8,0-5.68-2.9-9.4-8.72-11.16Z"/>
        <polygon class="cls-1" points="21.26 9.08 21.27 9.08 28.96 1.4 0 1.4 0 38.95 8.38 38.95 8.38 29.7 8.38 29.7 8.38 25.47 22.75 25.47 22.75 18 8.38 18 8.38 9.08 21.26 9.08"/>
        <path class="cls-1" d="m141.14,9.73v12.68c0,6.27-2.58,9.58-7.74,9.94-3.08.14-5.5-.64-7.25-2.36-1.76-1.72-2.63-4.24-2.63-7.58V1.4h-8.33v21.01c0,5.8,1.72,10.21,5.16,13.22,3.44,3.01,7.77,4.42,13,4.24,5.05-.18,9-1.76,11.85-4.76,2.85-2.99,4.27-7.23,4.27-12.71V1.4h-8.33v8.33Z"/>
        <path class="cls-1" d="m61.59,12.67c1.53,2.08,2.29,4.57,2.29,7.47,0,3.55-1.11,6.46-3.33,8.73-2.22,2.27-5.14,3.41-8.75,3.41-2.93,0-5.42-.78-7.48-2.34l-5.82,5.82c3.52,2.73,7.95,4.1,13.3,4.1,6.08,0,11-1.77,14.72-5.32,3.73-3.55,5.59-8.35,5.59-14.4,0-5.49-1.54-9.95-4.61-13.38l-5.91,5.91Z"/>
        <path class="cls-1" d="m39.71,20.15c0-3.47,1.13-6.37,3.38-8.7,2.26-2.33,5.16-3.49,8.71-3.49,1.86,0,3.55.31,5.04.95l5.91-5.91c-3.09-1.71-6.74-2.56-10.96-2.56-6.09,0-11,1.78-14.72,5.32-3.73,3.55-5.59,8.34-5.59,14.4,0,4.38.98,8.12,2.93,11.18l6.19-6.19c-.61-1.49-.91-3.16-.91-4.99Z"/>
      </g>
    </g>
  </g>
</svg>