<?xml version="1.0" encoding="UTF-8"?>
<svg id="Layer_1" data-name="Layer 1" xmlns="http://www.w3.org/2000/svg" viewBox="0 0 1000 1000">
  <defs>
    <style>
      .cls-1 {
        fill: #fff;
      }

      .cls-2 {
        fill: #2db77c;
      }

      .cls-3 {
        fill: #3ac5ef;
      }

      .cls-4 {
        fill: #172e49;
      }

      .cls-5 {
        fill: #e3426b;
      }

      .cls-6 {
        fill: #ebb22c;
      }
    </style>
  </defs>
  <rect class="cls-4" y="0" width="1000" height="1000"/>
  <g>
    <g>
      <g>
        <rect class="cls-6" x="566.53" y="253.21" width="40.94" height="40.94"/>
        <rect class="cls-6" x="535.82" y="299.27" width="25.59" height="25.59"/>
        <rect class="cls-6" x="515.35" y="329.97" width="15.35" height="15.35"/>
        <rect class="cls-6" x="392.53" y="427.21" width="40.94" height="40.94"/>
        <rect class="cls-6" x="438.59" y="396.5" width="25.59" height="25.59"/>
        <rect class="cls-6" x="469.29" y="376.03" width="15.35" height="15.35"/>
      </g>
      <g>
        <rect class="cls-2" x="566.53" y="427.21" width="40.94" height="40.94"/>
        <rect class="cls-2" x="535.82" y="396.5" width="25.59" height="25.59"/>
        <rect class="cls-2" x="515.35" y="376.03" width="15.35" height="15.35"/>
        <rect class="cls-2" x="392.53" y="253.21" width="40.94" height="40.94"/>
        <rect class="cls-2" x="438.59" y="299.27" width="25.59" height="25.59"/>
        <rect class="cls-2" x="469.29" y="329.97" width="15.35" height="15.35"/>
      </g>
      <g>
        <rect class="cls-5" x="602.56" y="340.21" width="40.94" height="40.94" transform="translate(-72.55 546.21) rotate(-45)"/>
        <rect class="cls-5" x="555.96" y="347.89" width="25.59" height="25.59" transform="translate(-88.45 507.82) rotate(-45)"/>
        <rect class="cls-5" x="524.89" y="353" width="15.35" height="15.35" transform="translate(-99.05 482.24) rotate(-45)"/>
        <rect class="cls-5" x="356.5" y="340.21" width="40.94" height="40.94" transform="translate(-144.63 372.21) rotate(-45)"/>
        <rect class="cls-5" x="418.45" y="347.89" width="25.59" height="25.59" transform="translate(-128.73 410.59) rotate(-45)"/>
        <rect class="cls-5" x="459.76" y="353" width="15.35" height="15.35" transform="translate(-118.14 436.13) rotate(-45)"/>
      </g>
      <g>
        <rect class="cls-3" x="479.53" y="463.25" width="40.94" height="40.94" transform="translate(-195.59 495.22) rotate(-45)"/>
        <rect class="cls-3" x="487.21" y="416.64" width="25.59" height="25.59" transform="translate(-157.21 479.31) rotate(-45)"/>
        <rect class="cls-3" x="492.32" y="385.57" width="15.35" height="15.35" transform="translate(-131.62 468.72) rotate(-45)"/>
        <rect class="cls-3" x="479.53" y="217.18" width="40.94" height="40.94" transform="translate(-21.6 423.15) rotate(-45)"/>
        <rect class="cls-3" x="487.21" y="279.13" width="25.59" height="25.59" transform="translate(-59.98 439.04) rotate(-45)"/>
        <rect class="cls-3" x="492.32" y="320.43" width="15.35" height="15.35" transform="translate(-85.57 449.6) rotate(-45)"/>
      </g>
    </g>
    <g>
      <g>
        <polygon class="cls-1" points="198.15 753.39 212.8 753.39 212.8 790.67 221.02 790.67 221.02 753.39 235.68 753.39 235.68 746.44 198.15 746.44 198.15 753.39"/>
        <path class="cls-1" d="m270.14,775.92c2.8-1.24,4.96-3.03,6.48-5.37,1.52-2.34,2.27-5.13,2.27-8.37s-.76-6.05-2.27-8.4c-1.52-2.36-3.68-4.17-6.48-5.43-2.8-1.26-6.16-1.9-10.08-1.9h-18.2v44.23h8.22v-12.89h9.98c.59,0,1.14-.04,1.71-.07l9.03,12.96h8.85l-10.17-14.51c.22-.09.45-.15.66-.24Zm-2.27-20.25c1.83,1.52,2.75,3.69,2.75,6.51s-.92,4.95-2.75,6.51c-1.83,1.56-4.56,2.34-8.18,2.34h-9.6v-17.63h9.6c3.62,0,6.35.76,8.18,2.27Z"/>
        <path class="cls-1" d="m301.7,746.44l-19.9,44.23h8.47l4.38-10.24h22.12l4.4,10.24h8.59l-19.96-44.23h-8.09Zm-4.3,27.55l8.28-19.35,8.31,19.35h-16.59Z"/>
        <rect class="cls-1" x="335.38" y="746.44" width="8.21" height="44.23"/>
        <polygon class="cls-1" points="386.68 776.39 362.29 746.44 355.53 746.44 355.53 790.67 363.68 790.67 363.68 760.73 388.07 790.67 394.83 790.67 394.83 746.44 386.68 746.44 386.68 776.39"/>
        <rect class="cls-1" x="406.71" y="746.44" width="8.22" height="44.23"/>
        <polygon class="cls-1" points="458.01 776.39 433.63 746.44 426.86 746.44 426.86 790.67 435.01 790.67 435.01 760.73 459.4 790.67 466.17 790.67 466.17 746.44 458.01 746.44 458.01 776.39"/>
        <path class="cls-1" d="m487.65,757.37c1.43-1.39,3.14-2.46,5.12-3.22,1.98-.76,4.13-1.14,6.44-1.14s4.6.41,6.6,1.23c2,.82,3.87,2.09,5.59,3.82l5.18-5.05c-2.06-2.36-4.6-4.15-7.61-5.37-3.01-1.22-6.39-1.83-10.14-1.83-3.45,0-6.63.56-9.54,1.67-2.9,1.12-5.44,2.7-7.61,4.74-2.17,2.04-3.85,4.46-5.02,7.24-1.18,2.78-1.77,5.81-1.77,9.1s.59,6.32,1.77,9.1c1.18,2.78,2.84,5.19,4.99,7.24,2.15,2.04,4.67,3.62,7.55,4.74,2.89,1.11,6.05,1.67,9.51,1.67,3.12,0,6.2-.48,9.26-1.42,3.05-.95,5.74-2.35,8.05-4.2v-17.63h-7.77v13.72c-.9.52-1.81.96-2.75,1.28-2.04.7-4.16,1.04-6.35,1.04-2.36,0-4.51-.38-6.44-1.14-1.94-.76-3.62-1.84-5.05-3.25-1.43-1.41-2.54-3.07-3.32-4.96-.78-1.9-1.17-3.96-1.17-6.19s.39-4.36,1.17-6.26c.78-1.9,1.88-3.54,3.32-4.93Z"/>
        <path class="cls-1" d="m553.83,757.37c1.41-1.39,3.07-2.46,4.99-3.22,1.91-.76,4.03-1.14,6.35-1.14s4.47.43,6.44,1.29c1.98.86,3.77,2.16,5.37,3.89l5.31-4.99c-2.07-2.44-4.59-4.29-7.58-5.53-2.99-1.24-6.3-1.86-9.92-1.86-3.41,0-6.55.56-9.41,1.67-2.87,1.12-5.37,2.7-7.52,4.74-2.15,2.04-3.81,4.46-4.99,7.24-1.18,2.78-1.77,5.81-1.77,9.1s.59,6.32,1.77,9.1,2.83,5.19,4.96,7.24c2.13,2.04,4.63,3.62,7.52,4.74,2.89,1.11,6.01,1.67,9.38,1.67,3.66,0,6.99-.63,9.98-1.9,2.99-1.27,5.52-3.1,7.58-5.5l-5.31-5.06c-1.6,1.77-3.39,3.09-5.37,3.95-1.98.86-4.13,1.29-6.44,1.29s-4.43-.38-6.35-1.14c-1.92-.76-3.58-1.83-4.99-3.22-1.41-1.39-2.51-3.03-3.28-4.93-.78-1.9-1.17-3.98-1.17-6.26s.39-4.36,1.17-6.26c.78-1.9,1.87-3.54,3.28-4.93Z"/>
        <polygon class="cls-1" points="598.4 771.59 619.76 771.59 619.76 764.83 598.4 764.83 598.4 753.33 622.48 753.33 622.48 746.44 590.19 746.44 590.19 790.67 623.36 790.67 623.36 783.78 598.4 783.78 598.4 771.59"/>
        <polygon class="cls-1" points="663.67 776.39 639.29 746.44 632.52 746.44 632.52 790.67 640.67 790.67 640.67 760.73 665.06 790.67 671.82 790.67 671.82 746.44 663.67 746.44 663.67 776.39"/>
        <polygon class="cls-1" points="678.01 753.39 692.67 753.39 692.67 790.67 700.88 790.67 700.88 753.39 715.54 753.39 715.54 746.44 678.01 746.44 678.01 753.39"/>
        <polygon class="cls-1" points="729.95 771.59 751.31 771.59 751.31 764.83 729.95 764.83 729.95 753.33 754.02 753.33 754.02 746.44 721.74 746.44 721.74 790.67 754.91 790.67 754.91 783.78 729.95 783.78 729.95 771.59"/>
        <path class="cls-1" d="m801.85,790.67l-10.17-14.51c.22-.09.45-.15.66-.24,2.8-1.24,4.96-3.03,6.48-5.37,1.52-2.34,2.27-5.13,2.27-8.37s-.76-6.05-2.27-8.4c-1.52-2.36-3.68-4.17-6.48-5.43-2.8-1.26-6.16-1.9-10.08-1.9h-18.2v44.23h8.22v-12.89h9.98c.59,0,1.14-.04,1.71-.07l9.03,12.96h8.85Zm-11.78-35c1.83,1.52,2.75,3.69,2.75,6.51s-.92,4.95-2.75,6.51c-1.83,1.56-4.56,2.34-8.18,2.34h-9.6v-17.63h9.6c3.62,0,6.35.76,8.18,2.27Z"/>
      </g>
      <g>
        <path class="cls-1" d="m525.63,689.52c-5.14,1.93-10.04,3.01-14.71,3.16-.5.05-.98.05-1.46.05-6.83,0-12.8-1.13-17.89-3.39-5.09-2.26-9.06-5.27-11.89-9.03-2.86-3.76-4.97-7.76-6.35-12-1.41-4.22-2.08-8.71-2.08-13.45s.68-9.19,2.08-13.65c1.38-4.44,3.56-8.61,6.52-12.5,2.94-3.89,6.98-7,12.07-9.39,4.99-2.33,10.69-3.51,17.14-3.56h.4c11.54,0,20.75,3.36,27.6,10.09h.03l16.91-16.94c-7.05-6.9-14.76-11.9-23.11-14.98-6.73-2.46-13.85-3.71-21.43-3.71-10.77,0-20.43,1.86-28.93,5.57-8.51,3.71-15.33,8.68-20.5,14.93-5.14,6.27-9.03,13.12-11.64,20.6-2.58,7.45-3.89,15.26-3.89,23.36,0,8.56,1.23,16.54,3.71,23.89,2.51,7.35,6.27,14,11.29,19.98,5.04,5.97,11.82,10.67,20.35,14.08,8.51,3.41,18.37,5.12,29.61,5.12,8.36,0,16.06-1.13,23.09-3.44,8.98-2.94,16.86-7.75,23.61-14.46l-17.82-17.82c-3.34,3.06-7.58,5.55-12.72,7.48Z"/>
        <path class="cls-1" d="m716.91,654.33c4.22,2.31,8.51,4.09,12.95,5.34l20.15-20.15c-6.47-.8-11.39-1.98-14.78-3.51-4.22-1.93-6.32-5.42-6.32-10.51,0-4.07,2.08-7.3,6.25-9.74,4.17-2.43,9.31-3.64,15.46-3.64,5.22,0,10.39.85,15.56,2.61,5.14,1.73,9.34,4.27,12.6,7.63l16.01-16.04c-5.72-6.37-11.97-10.87-18.72-13.5-7.1-2.78-15.66-4.16-25.62-4.16-13.33,0-24.64,3.29-33.95,9.81-9.34,6.55-14.05,15.61-14.18,27.2-.1,6.83,1.08,12.65,3.56,17.44,2.51,4.82,6.17,8.56,11.04,11.22Z"/>
        <path class="cls-1" d="m773.65,643.44l-20.05,20.05c6.95.83,12.17,2.38,15.68,4.64,4.02,2.61,5.95,6.4,5.82,11.39,0,4.29-2.26,7.76-6.78,10.41-4.52,2.66-10.36,3.99-17.54,3.99-4.52,0-9.03-.65-13.6-1.96-2.23-.63-4.47-1.43-6.73-2.38-.68-.3-1.36-.6-2.03-.93-1.98-.95-3.86-2.03-5.62-3.26-3.36-2.28-6.32-5.04-8.88-8.26l-16.14,16.11-.33.35c4.54,7.7,11.27,13.7,20.13,17.94.58.28,1.15.55,1.76.8,9.74,4.29,20.15,6.37,31.27,6.27,9.16-.13,17.49-1.48,25.02-4.09,7.53-2.61,13.78-6.95,18.77-13.02,4.97-6.1,7.45-13.43,7.45-21.98,0-18.37-9.39-30.39-28.21-36.09Z"/>
        <polygon class="cls-1" points="266.91 618.03 266.93 618.03 291.77 593.19 198.15 593.19 198.15 714.62 225.25 714.62 225.25 684.69 225.25 684.69 225.25 671.03 271.7 671.03 271.7 646.86 225.25 646.86 225.25 618.03 266.91 618.03"/>
        <path class="cls-1" d="m654.54,620.12v41c0,20.27-8.34,30.99-25.02,32.14-9.96.47-17.78-2.08-23.45-7.64-5.68-5.56-8.51-13.72-8.51-24.5v-67.93h-26.93v67.93c0,18.76,5.56,33.01,16.68,42.74,11.12,9.73,25.13,14.3,42.04,13.72,16.33-.58,29.1-5.7,38.31-15.38,9.21-9.67,13.81-23.37,13.81-41.09v-67.93h-26.93v26.93Z"/>
        <path class="cls-1" d="m397.31,629.64c4.94,6.72,7.4,14.78,7.4,24.17,0,11.47-3.59,20.88-10.77,28.23-7.18,7.35-16.61,11.04-28.31,11.04-9.49,0-17.54-2.54-24.19-7.58l-18.82,18.82c11.39,8.83,25.72,13.25,43.01,13.25,19.67,0,35.56-5.72,47.6-17.19,12.05-11.47,18.07-27,18.07-46.58,0-17.77-4.97-32.17-14.91-43.26l-19.1,19.1Z"/>
        <path class="cls-1" d="m326.54,653.8c0-11.22,3.64-20.6,10.94-28.13,7.3-7.53,16.69-11.29,28.16-11.29,6.02,0,11.47,1,16.31,3.06l19.12-19.12c-9.99-5.52-21.81-8.28-35.43-8.28-19.7,0-35.56,5.75-47.6,17.21-12.05,11.47-18.07,26.98-18.07,46.55,0,14.18,3.16,26.25,9.49,36.16l20.03-20.03c-1.96-4.82-2.94-10.21-2.94-16.14Z"/>
      </g>
    </g>
  </g>
</svg>